<svg xmlns="http://www.w3.org/2000/svg" viewBox="70.14 133.445 499 503">
<path fill="#F1C40F" d="M319.641,164.787c121.589,0,220.16,98.569,220.16,220.16c0,121.588-98.574,220.155-220.16,220.155  c-121.585,0-220.16-98.566-220.16-220.155C99.48,263.356,198.052,164.787,319.641,164.787z"/>
<path fill="#FFFFFF" d="M243.832,169.898h150.936c5.959,0,10.783,4.587,10.783,10.246V598.04c0,5.654-4.82,10.25-10.783,15.615  H243.832c-5.955-5.373-10.783-9.961-10.783-15.615V180.144C233.053,174.486,237.877,169.898,243.832,169.898z"/>
<path fill="#c0392b" d="M378.218,284.133c-12.728,2.321-16.037,21.604-35.643,7.338c-23.111-16.817-37.065-2.573-47.596,2.061  c-15.207,6.688-17.608-2.418-30.065-8.375c-11.212-5.365-20.435,8.434-20.961,13.595V595.71c0,5.113,4.131,9.26,9.234,9.26h131.927  c5.096,0,9.232-4.145,9.232-9.26V298.753C394.343,293.641,387.255,282.487,378.218,284.133z"/>
<path fill="#FFFFFF" d="M312.927,319.166c9.637,0,17.454,7.813,17.454,17.455c0,9.641-7.812,17.454-17.454,17.454  c-9.638,0-17.456-7.813-17.456-17.454C295.471,326.979,303.289,319.166,312.927,319.166z M298.831,399.714  c-5.558,0-10.06-4.506-10.06-10.064c0-5.56,4.506-10.067,10.06-10.067c5.565,0,10.071,4.508,10.071,10.067  C308.903,395.208,304.393,399.714,298.831,399.714z M308.903,532.614c0-5.191,4.206-9.4,9.401-9.4c5.192,0,9.397,4.209,9.397,9.4  s-4.205,9.396-9.397,9.396C313.107,542.01,308.903,537.805,308.903,532.614z M326.355,593.024c-2.965,0-5.369-2.402-5.369-5.369  c0-2.969,2.404-5.369,5.369-5.369c2.965,0,5.365,2.4,5.365,5.369C331.72,590.622,329.32,593.024,326.355,593.024z M335.078,568.86  c-4.076,0-7.381-3.309-7.381-7.385c0-4.076,3.305-7.381,7.381-7.381c4.072,0,7.383,3.305,7.383,7.381  C342.462,565.552,339.154,568.86,335.078,568.86z M336.419,516.507c-6.301,0-11.41-5.105-11.41-11.412  c0-6.299,5.109-11.406,11.41-11.406c6.307,0,11.412,5.111,11.412,11.406C347.832,511.393,342.726,516.507,336.419,516.507z   M334.406,391.657c-8.15,0-14.765-6.608-14.765-14.766c0-8.159,6.611-14.768,14.765-14.768c8.16,0,14.771,6.612,14.771,14.768  C349.177,385.045,342.562,391.657,334.406,391.657z M301.529,338.612c0.267-5.729,5.691-10.877,11.665-11.586  c6.151-0.728,9.79,2.195,9.79,2.195s-1.246-6.036-10.813-5.834c-7.722,0.163-12.739,6.981-11.957,13.617  c0.337,2.885,0.841,2.879,1.768,4.515C301.647,340.601,301.484,339.626,301.529,338.612z M334.759,555.88  c-3.269,0.068-5.389,2.957-5.062,5.768c0.137,1.215,0.355,1.211,0.744,1.904c-0.137-0.391-0.211-0.801-0.191-1.23  c0.109-2.422,2.408-4.604,4.935-4.906c2.607-0.303,4.146,0.934,4.146,0.934S338.804,555.8,334.759,555.88z M317.892,525.489  c-4.157,0.086-6.862,3.764-6.44,7.336c0.186,1.553,0.452,1.549,0.952,2.432c-0.181-0.49-0.267-1.019-0.237-1.562  c0.141-3.088,3.061-5.863,6.273-6.236c3.314-0.396,5.273,1.182,5.273,1.182S323.039,525.382,317.892,525.489z M335.921,496.442  c-5.047,0.108-8.326,4.568-7.822,8.902c0.227,1.889,0.557,1.883,1.164,2.955c-0.223-0.602-0.326-1.242-0.293-1.9  c0.172-3.75,3.717-7.115,7.627-7.578c4.02-0.478,6.406,1.43,6.406,1.43S342.181,496.309,335.921,496.442z M326.119,583.583  c-2.377,0.051-3.922,2.152-3.676,4.193c0.1,0.883,0.254,0.883,0.543,1.387c-0.104-0.281-0.154-0.586-0.145-0.895  c0.086-1.768,1.758-3.346,3.596-3.565c1.891-0.227,3.008,0.672,3.008,0.672S329.064,583.522,326.119,583.583z M333.765,365.698  c-6.531,0.137-10.775,5.908-10.115,11.523c0.285,2.444,0.715,2.435,1.496,3.82c-0.285-0.778-0.418-1.604-0.385-2.458  c0.229-4.848,4.816-9.206,9.875-9.804c5.203-0.615,8.277,1.858,8.277,1.858S341.859,365.527,333.765,365.698z M298.394,382.008  c-4.458,0.096-7.348,4.03-6.896,7.86c0.196,1.664,0.485,1.664,1.019,2.604c-0.192-0.533-0.285-1.09-0.255-1.674  c0.152-3.31,3.283-6.277,6.725-6.688c3.553-0.421,5.647,1.263,5.647,1.263S303.915,381.895,298.394,382.008z"/>
<path fill="#c0392b" d="M307.911,257.721c0,8.153,6.606,14.768,14.765,14.768c8.16,0,14.766-6.614,14.766-14.768  c0-8.154-6.602-14.768-14.766-14.768C314.52,242.952,307.911,249.562,307.911,257.721z M322.035,246.522  c8.098-0.17,9.148,4.938,9.148,4.938s-3.078-2.474-8.281-1.858c-5.061,0.598-9.648,4.954-9.87,9.804  c-0.041,0.855,0.096,1.681,0.377,2.458c-0.785-1.386-1.203-1.382-1.496-3.822C311.257,252.431,315.503,246.659,322.035,246.522z   M303.211,228.185c5.563,0,10.068-4.506,10.068-10.066c0-5.562-4.51-10.066-10.068-10.066c-5.558,0-10.067,4.508-10.067,10.066  C293.145,223.679,297.649,228.185,303.211,228.185z M302.773,210.485c5.518-0.115,6.24,3.368,6.24,3.368s-2.101-1.688-5.646-1.267  c-3.446,0.41-6.577,3.381-6.729,6.687c-0.026,0.583,0.07,1.145,0.259,1.677c-0.534-0.945-0.823-0.941-1.023-2.607  C295.427,214.515,298.316,210.58,302.773,210.485z M331.402,201.337c4.076,0,7.387-3.305,7.387-7.383c0-4.08-3.31-7.385-7.387-7.385  c-4.08,0-7.385,3.305-7.385,7.385C324.021,198.033,327.322,201.337,331.402,201.337z M331.08,188.357  c4.051-0.083,4.572,2.47,4.572,2.47s-1.533-1.238-4.139-0.93c-2.527,0.3-4.824,2.479-4.932,4.902  c-0.025,0.43,0.045,0.843,0.188,1.23c-0.394-0.691-0.603-0.691-0.752-1.908C325.693,191.308,327.816,188.425,331.08,188.357z"/>
<path d="M400.707,162.336h-45.613c0.838-1.427,1.342-3.198,1.342-5.123c0-4.711-2.969-8.537-6.625-8.537h-58.278  c-3.657,0-6.622,3.826-6.622,8.537c0,1.925,0.5,3.696,1.334,5.123h-49.015c-5.644,0-10.216,4.587-10.216,10.249v438.386  c0,5.656,4.572,10.242,10.216,10.242h163.478c5.637,0,10.213-4.586,10.213-10.242V172.585  C410.927,166.923,406.351,162.336,400.707,162.336z M400.707,600.723c0,5.662-4.572,10.248-10.211,10.248H247.445  c-5.636,0-10.212-4.586-10.212-10.248V182.83c0-5.662,4.576-10.245,10.212-10.245H390.49c5.644,0,10.217,4.583,10.217,10.245  V600.723L400.707,600.723z"/>
<path fill="#010101" d="M456.57,350.045v13.425h25.51L456.57,350.045z M90.083,344.673l34.905,60.41l-34.905,60.408h57.723V364.81  l33.563-20.137H90.083z M549.197,344.673h-91.285l33.562,20.137v100.683h57.723l-34.902-60.41L549.197,344.673z M151.837,488.317  h335.602V367.496H151.837V488.317z M182.711,363.471v-13.425l-25.508,13.425H182.711z"/>
<g>
	<path fill="#FFFFFF" d="M186.142,412.24c6.96,0,14.497,3.792,15.793,12.77c-2.928,0-5.521,0-8.449,0   c-1.2-3.408-3.745-4.944-7.345-4.944c-5.041,0-8.353,3.792-8.353,9.36c0,4.944,3.265,9.265,8.353,9.312   c3.648,0,6.577-1.824,7.489-5.424c2.88,0,5.521,0,8.449,0c-1.249,9.505-8.785,13.249-15.938,13.249   c-8.545,0.048-17.186-5.713-17.233-17.138C168.956,418,177.597,412.24,186.142,412.24z"/>
	<path fill="#FFFFFF" d="M228.045,442.002h-13.249l-1.968,4.225h-8.401v-1.248l15.122-32.787h3.696l15.169,32.787v1.248h-8.401   L228.045,442.002z M221.373,425.825l-3.792,8.833h7.681L221.373,425.825z"/>
	<path fill="#FFFFFF" d="M237.259,420.304c0-2.592,0-5.136,0-7.681h24.962c0,2.545,0,5.089,0,7.681h-8.209v25.923   c-2.832,0-5.665,0-8.497,0v-25.923H237.259z"/>
	<path fill="#FFFFFF" d="M301.725,420.304c-4.992,0-7.488,0-12.433,0v4.753h11.425c0,2.544,0,5.088,0,7.633h-11.425   c0,1.968,0,3.888,0,5.904c4.945,0,7.825,0,12.865,0c0,2.496,0,5.088,0,7.633c-7.872,0-13.633,0-21.409,0   c0-11.233,0-22.466,0-33.604c7.776,0,13.105,0,20.978,0C301.725,415.121,301.725,417.712,301.725,420.304z"/>
	<path fill="#FFFFFF" d="M318.427,429.713v16.514c-2.976,0-5.952,0-8.881,0V412.48h3.121l16.993,16.609v-16.466   c2.928,0,5.856,0,8.784,0v33.651h-3.072L318.427,429.713z"/>
	<path fill="#FFFFFF" d="M367.964,420.304c-4.992,0-7.488,0-12.433,0v4.753h11.425c0,2.544,0,5.088,0,7.633h-11.425   c0,1.968,0,3.888,0,5.904c4.944,0,7.824,0,12.865,0c0,2.496,0,5.088,0,7.633c-7.873,0-13.634,0-21.41,0c0-11.233,0-22.466,0-33.604   c7.776,0,13.105,0,20.978,0C367.964,415.121,367.964,417.712,367.964,420.304z"/>
	<path fill="#FFFFFF" d="M404.157,444.979v1.248h-9.601l-5.761-9.889h-4.464v9.889c-2.881,0-5.809,0-8.593,0   c0-11.186,0-22.37,0-33.604c4.849,0,9.841,0,14.737,0c13.201,0.049,15.602,15.938,7.104,21.698L404.157,444.979z M390.476,420.304   c-2.017-0.048-4.129,0-6.145,0c0,2.736,0,5.713,0,8.401h6.145C395.132,428.706,395.373,420.353,390.476,420.304z"/>
	<path fill="#FFFFFF" d="M424.507,412.192c6.769,0.048,13.825,3.553,15.458,11.905h-8.449c-1.392-2.881-3.601-4.032-7.009-4.032   c-5.424,0-8.353,4.224-8.353,9.36c0,5.568,3.265,9.217,8.353,9.217c3.457,0,5.665-0.912,7.201-4.128h-7.153v-7.441h15.89   c0.192,3.36,0.192,6.577-0.96,9.841c-2.4,7.009-8.785,9.697-14.978,9.697c-8.545,0-17.186-5.713-17.233-17.186   C407.322,417.953,415.962,412.192,424.507,412.192z"/>
	<path fill="#FFFFFF" d="M462.043,446.227h-8.497v-14.113l-11.281-18.193v-1.297h9.266l6.096,11.186h0.336l6.097-11.186h9.313v1.297   l-11.329,18.193V446.227z"/>
</g>
</svg>